Genre:Comedy | Horror | Thriller
Language:English
IMDb:http://www.imdb.com/title/tt1477835/
Source:DVD
Subtitles:Romana

Format : MPEG-4
Format profile : Base Media
Codec ID : isom
File size : 1.20 GiB
Duration : 1h 44mn
Overall bit rate : 1 650 Kbps
Movie name : Bitter Feast 2010 DvDRip x264 Feel-Free


Video
Format settings, CABAC : Yes
Format settings, ReFrames : 4 frames
Codec ID : avc1
Codec ID/Info : Advanced Video Coding
Duration : 1h 44mn
Bit rate mode : Variable
Bit rate : 1 264 Kbps
Width : 720 pixels
Height : 384 pixels
Display aspect ratio : 1.875
Frame rate mode : Constant
Frame rate : 23.976 fps
Color space : YUV
Chroma subsampling : 4:2:0
Bit depth : 8 bits
Scan type : Progressive
Bits/(Pixel*Frame) : 0.191
Stream size : 942 MiB (76%)
Writing library : x264

Audio
ID : 2
Format : AAC
Format/Info : Advanced Audio Codec
Format version : Version 4
Format profile : LC
Codec ID : 40
Duration : 1h 44mn
Bit rate mode : Variable
Bit rate : 384 Kbps
Channel(s) : 6 channels
Channel positions : Front: L C R, Side: L R, LFE
Sampling rate : 48.0 KHz
Stream size : 287 MiB (23%)


Plot:
A celebrity chef exacts revenge on a food blogger who torpedoes his career






================================== 
http://thepiratebay.org/user/hiest
==================================






Screenshots:
 
http://rapidhdd.com/images/610539vlcsnap-00001.png
 
http://www.rapidhdd.com/images/723897vlcsnap-00003.png
 
http://www.rapidhdd.com/images/575610vlcsnap-00002.png
 
http://www.rapidhdd.com/images/306010vlcsnap-00004.png
 
http://www.rapidhdd.com/images/536115vlcsnap-00005.png
